<svg id="Group_7" xmlns="http://www.w3.org/2000/svg" xmlns:xlink="http://www.w3.org/1999/xlink" width="172.643" height="51.154" viewBox="0 0 172.643 51.154">
  <defs>
    <clipPath id="clip-path">
      <path id="Rectangle_7" d="M0,0H172.643V51.154H0Z" fill="none"/>
    </clipPath>
  </defs>
  <g id="Group_6" clip-path="url(#clip-path)">
    <g id="Group_5">
      <g id="Group_4" clip-path="url(#clip-path)">
        <path id="Path_17" d="M788.579,701.389H628.127a6.06,6.06,0,0,1-6.042-6.052V656.278a6.052,6.052,0,0,1,6.042-6.042H788.579a6.135,6.135,0,0,1,6.142,6.042v39.057a6.143,6.143,0,0,1-6.142,6.052" transform="translate(-622.078 -650.236)" fill="#a6a6a6"/>
        <path id="Path_18" d="M792.9,694.749a4.9,4.9,0,0,1-4.9,4.9H627.542a4.906,4.906,0,0,1-4.911-4.9V655.69a4.909,4.909,0,0,1,4.911-4.9H787.995a4.9,4.9,0,0,1,4.9,4.9v39.059Z" transform="translate(-621.493 -649.647)" fill="#040405"/>
        <path id="Path_19" d="M652.154,667.357a7.412,7.412,0,0,1,3.532-6.214,7.6,7.6,0,0,0-5.98-3.232c-2.517-.264-4.956,1.505-6.237,1.505-1.308,0-3.28-1.479-5.406-1.434a7.961,7.961,0,0,0-6.7,4.084c-2.9,5.018-.737,12.391,2.039,16.447,1.381,1.985,3.012,4.2,5.135,4.124,2.072-.086,2.855-1.324,5.363-1.324s3.214,1.324,5.381,1.274c2.229-.038,3.634-2,4.975-4a16.423,16.423,0,0,0,2.274-4.633,7.172,7.172,0,0,1-4.374-6.592" transform="translate(-613.627 -642.058)" fill="#fff"/>
        <path id="Path_20" d="M641.24,659.307a7.3,7.3,0,0,0,1.669-5.229,7.432,7.432,0,0,0-4.808,2.486,6.947,6.947,0,0,0-1.712,5.037,6.145,6.145,0,0,0,4.85-2.292" transform="translate(-606.802 -646.127)" fill="#fff"/>
        <path id="Path_21" d="M662.659,678.5h-2.905l-1.592-5.006h-5.524l-1.516,5.006h-2.829l5.479-17.02h3.383Zm-4.975-7.1-1.44-4.443q-.226-.691-.863-3.207h-.05q-.254,1.086-.81,3.207l-1.414,4.443Z" transform="translate(-594.054 -638.212)" fill="#fff"/>
        <path id="Path_22" d="M668.15,669.893a6.979,6.979,0,0,1-1.69,4.949,4.949,4.949,0,0,1-3.765,1.616,3.758,3.758,0,0,1-3.483-1.743h-.052v6.458h-2.726V667.941q0-1.968-.1-4.039h2.4l.15,1.945h.05a4.852,4.852,0,0,1,7.768-.48,6.776,6.776,0,0,1,1.45,4.519m-2.778.1a5.051,5.051,0,0,0-.809-2.955,2.793,2.793,0,0,0-2.374-1.208,2.828,2.828,0,0,0-1.83.67,3.089,3.089,0,0,0-1.074,1.757,3.632,3.632,0,0,0-.126.83v2.047a3.279,3.279,0,0,0,.822,2.26,2.723,2.723,0,0,0,2.134.923,2.8,2.8,0,0,0,2.4-1.188,5.234,5.234,0,0,0,.863-3.131" transform="translate(-585.458 -635.892)" fill="#fff"/>
        <path id="Path_23" d="M674.972,669.893a6.981,6.981,0,0,1-1.693,4.949,4.943,4.943,0,0,1-3.761,1.616,3.761,3.761,0,0,1-3.485-1.745h-.05v6.46h-2.726V667.941q0-1.968-.1-4.039h2.4l.152,1.945h.05a4.852,4.852,0,0,1,7.768-.48,6.777,6.777,0,0,1,1.45,4.519m-2.777.1a5.05,5.05,0,0,0-.81-2.955,2.791,2.791,0,0,0-2.374-1.208,2.835,2.835,0,0,0-1.831.67,3.107,3.107,0,0,0-1.072,1.757,3.612,3.612,0,0,0-.126.83v2.047a3.291,3.291,0,0,0,.82,2.26,2.725,2.725,0,0,0,2.135.923,2.8,2.8,0,0,0,2.4-1.188,5.233,5.233,0,0,0,.863-3.131" transform="translate(-578.163 -635.892)" fill="#fff"/>
        <path id="Path_24" d="M681.942,673.86a4.535,4.535,0,0,1-1.51,3.537,6.7,6.7,0,0,1-4.635,1.49,8.129,8.129,0,0,1-4.412-1.062l.632-2.272a7.478,7.478,0,0,0,3.943,1.086,3.734,3.734,0,0,0,2.4-.69,2.268,2.268,0,0,0,.863-1.861,2.362,2.362,0,0,0-.708-1.745,6.56,6.56,0,0,0-2.346-1.319q-4.469-1.667-4.469-4.88a4.315,4.315,0,0,1,1.569-3.439,6.175,6.175,0,0,1,4.165-1.341,8.237,8.237,0,0,1,3.861.81l-.69,2.222a6.7,6.7,0,0,0-3.258-.784,3.294,3.294,0,0,0-2.244.708,2.022,2.022,0,0,0-.68,1.54,2.071,2.071,0,0,0,.782,1.668,8.846,8.846,0,0,0,2.475,1.312,8.422,8.422,0,0,1,3.231,2.072,4.343,4.343,0,0,1,1.036,2.955" transform="translate(-569.362 -638.344)" fill="#fff"/>
        <path id="Path_25" d="M684.71,667.4H681.7v5.957q0,2.275,1.593,2.273a4.939,4.939,0,0,0,1.209-.126l.074,2.071a6.18,6.18,0,0,1-2.121.3,3.268,3.268,0,0,1-2.524-.984,4.832,4.832,0,0,1-.908-3.309V667.4h-1.792v-2.046h1.792v-2.244l2.676-.808v3.054h3.007Z" transform="translate(-563.108 -637.335)" fill="#fff"/>
        <path id="Path_26" d="M693.61,669.948a6.73,6.73,0,0,1-1.616,4.643,5.769,5.769,0,0,1-4.488,1.868,5.486,5.486,0,0,1-4.3-1.792,6.527,6.527,0,0,1-1.6-4.519,6.672,6.672,0,0,1,1.654-4.671,5.726,5.726,0,0,1,4.457-1.816,5.605,5.605,0,0,1,4.343,1.792,6.461,6.461,0,0,1,1.566,4.488m-2.831.086a5.523,5.523,0,0,0-.73-2.912,2.7,2.7,0,0,0-2.448-1.469,2.732,2.732,0,0,0-2.5,1.469,5.613,5.613,0,0,0-.732,2.962,5.512,5.512,0,0,0,.732,2.912,2.752,2.752,0,0,0,2.475,1.469,2.722,2.722,0,0,0,2.446-1.493,5.513,5.513,0,0,0,.758-2.934" transform="translate(-558.447 -635.888)" fill="#fff"/>
        <path id="Path_27" d="M695.079,666.306a4.747,4.747,0,0,0-.863-.074,2.579,2.579,0,0,0-2.223,1.086,4.075,4.075,0,0,0-.68,2.417v6.439h-2.726l.023-8.41q0-2.12-.1-3.863h2.375l.1,2.348h.073a4.184,4.184,0,0,1,1.365-1.942,3.289,3.289,0,0,1,1.97-.656,4.251,4.251,0,0,1,.69.05Z" transform="translate(-551.053 -635.892)" fill="#fff"/>
        <path id="Path_28" d="M703.216,669.472a6.364,6.364,0,0,1-.1,1.238h-8.181a3.569,3.569,0,0,0,1.186,2.777,4.048,4.048,0,0,0,2.676.863,9.05,9.05,0,0,0,3.309-.582l.428,1.9a10.258,10.258,0,0,1-4.114.758,5.957,5.957,0,0,1-4.488-1.678,6.2,6.2,0,0,1-1.628-4.507,7.032,7.032,0,0,1,1.517-4.623,5.227,5.227,0,0,1,4.291-1.968,4.575,4.575,0,0,1,4.017,1.968,6.651,6.651,0,0,1,1.082,3.865m-2.6-.708a3.709,3.709,0,0,0-.53-2.1,2.382,2.382,0,0,0-2.173-1.136,2.59,2.59,0,0,0-2.172,1.112,4.057,4.057,0,0,0-.806,2.122Z" transform="translate(-546.999 -635.9)" fill="#fff"/>
        <path id="Path_29" d="M655.945,658.515a4.2,4.2,0,0,1-1.352,3.4,5.382,5.382,0,0,1-3.56,1.053,16.632,16.632,0,0,1-1.961-.1v-8.223a14.4,14.4,0,0,1,2.31-.172,4.969,4.969,0,0,1,3.311.956,3.855,3.855,0,0,1,1.251,3.086m-1.412.038a2.724,2.724,0,0,0-3.04-3.026,5.777,5.777,0,0,0-1.081.086v6.251a7.227,7.227,0,0,0,.906.038,3.173,3.173,0,0,0,2.375-.863,3.43,3.43,0,0,0,.839-2.493" transform="translate(-593.22 -645.716)" fill="#fff"/>
        <path id="Path_30" d="M659.067,658.654a3.3,3.3,0,0,1-.792,2.28,2.841,2.841,0,0,1-2.21.922,2.7,2.7,0,0,1-2.115-.882,3.218,3.218,0,0,1-.787-2.222,3.281,3.281,0,0,1,.811-2.292,2.816,2.816,0,0,1,2.189-.894,2.761,2.761,0,0,1,2.134.882,3.176,3.176,0,0,1,.77,2.208m-1.381.043a2.724,2.724,0,0,0-.361-1.433,1.324,1.324,0,0,0-1.208-.72,1.343,1.343,0,0,0-1.227.72,2.779,2.779,0,0,0-.359,1.457,2.72,2.72,0,0,0,.359,1.429,1.369,1.369,0,0,0,2.417-.012,2.706,2.706,0,0,0,.373-1.443" transform="translate(-588.848 -644.539)" fill="#fff"/>
        <path id="Path_31" d="M665.385,655.624l-1.887,6.028h-1.227l-.782-2.617a19.656,19.656,0,0,1-.483-1.945h-.022a14.176,14.176,0,0,1-.485,1.945l-.832,2.617h-1.24l-1.776-6.028h1.381l.68,2.865q.249,1.015.413,1.935h.023q.148-.758.5-1.925l.863-2.876H661.6l.82,2.815q.3,1.036.483,1.985h.038a18.856,18.856,0,0,1,.408-1.985l.732-2.815Z" transform="translate(-585.118 -644.475)" fill="#fff"/>
        <path id="Path_32" d="M666.959,661.722H665.62V658.27q0-1.6-1.208-1.6a1.208,1.208,0,0,0-.967.438,1.554,1.554,0,0,0-.373,1.036v3.575H661.72v-4.307c0-.53-.014-1.1-.048-1.726h1.177l.062.941h.038a1.928,1.928,0,0,1,.69-.727,2.259,2.259,0,0,1,1.208-.345,1.925,1.925,0,0,1,1.4.545,2.657,2.657,0,0,1,.691,2Z" transform="translate(-579.746 -644.543)" fill="#fff"/>
        <path id="Rectangle_5" d="M0,0H1.34V8.8H0Z" transform="translate(89.571 8.384)" fill="#fff"/>
        <path id="Path_33" d="M672.886,658.654a3.3,3.3,0,0,1-.794,2.28,2.839,2.839,0,0,1-2.21.922,2.7,2.7,0,0,1-2.115-.882,3.218,3.218,0,0,1-.787-2.222,3.279,3.279,0,0,1,.811-2.292,2.814,2.814,0,0,1,2.187-.894,2.762,2.762,0,0,1,2.135.882,3.176,3.176,0,0,1,.771,2.208m-1.393.043a2.725,2.725,0,0,0-.361-1.433,1.32,1.32,0,0,0-1.208-.72,1.341,1.341,0,0,0-1.229.72,2.778,2.778,0,0,0-.361,1.457,2.717,2.717,0,0,0,.361,1.429,1.35,1.35,0,0,0,1.208.722,1.334,1.334,0,0,0,1.208-.734,2.688,2.688,0,0,0,.373-1.443" transform="translate(-574.076 -644.539)" fill="#fff"/>
        <path id="Path_34" d="M675.523,661.714h-1.208l-.1-.691h-.036a2.071,2.071,0,0,1-1.761.832,1.82,1.82,0,0,1-1.381-.545,1.716,1.716,0,0,1-.471-1.229,1.873,1.873,0,0,1,.923-1.687,4.814,4.814,0,0,1,2.6-.571v-.112q0-1.191-1.251-1.189a2.789,2.789,0,0,0-1.571.447l-.271-.882a3.846,3.846,0,0,1,2.072-.518q2.361,0,2.365,2.493v2.22a9.339,9.339,0,0,0,.086,1.438m-1.391-2.071v-.929q-2.22-.036-2.218,1.208a.912.912,0,0,0,.257.708.943.943,0,0,0,.656.237,1.336,1.336,0,0,0,.818-.28,1.148,1.148,0,0,0,.489-.949" transform="translate(-570.237 -644.537)" fill="#fff"/>
        <path id="Path_35" d="M679.623,663.086h-1.189l-.062-.968h-.038a2.006,2.006,0,0,1-1.937,1.1,2.266,2.266,0,0,1-1.811-.863,3.33,3.33,0,0,1-.718-2.22,3.494,3.494,0,0,1,.78-2.37,2.4,2.4,0,0,1,1.861-.844,1.8,1.8,0,0,1,1.7.82h.024v-3.463h1.343v7.171c0,.587.014,1.129.048,1.624m-1.391-2.541V659.53a1.929,1.929,0,0,0-.038-.423,1.5,1.5,0,0,0-.483-.811,1.314,1.314,0,0,0-.9-.33,1.381,1.381,0,0,0-1.179.6,2.539,2.539,0,0,0-.428,1.523,2.379,2.379,0,0,0,.413,1.452,1.381,1.381,0,0,0,1.172.6,1.29,1.29,0,0,0,1.058-.5,1.652,1.652,0,0,0,.385-1.1" transform="translate(-566.712 -645.907)" fill="#fff"/>
        <path id="Path_36" d="M685.234,658.655a3.3,3.3,0,0,1-.794,2.28,2.832,2.832,0,0,1-2.208.922,2.705,2.705,0,0,1-2.116-.882,3.218,3.218,0,0,1-.787-2.222,3.279,3.279,0,0,1,.813-2.292,2.808,2.808,0,0,1,2.189-.894,2.762,2.762,0,0,1,2.134.882,3.176,3.176,0,0,1,.77,2.208m-1.381.043a2.724,2.724,0,0,0-.361-1.433,1.326,1.326,0,0,0-1.208-.72,1.347,1.347,0,0,0-1.229.72,2.777,2.777,0,0,0-.361,1.457,2.718,2.718,0,0,0,.361,1.429,1.371,1.371,0,0,0,2.417-.012,2.726,2.726,0,0,0,.373-1.443" transform="translate(-560.87 -644.539)" fill="#fff"/>
        <path id="Path_37" d="M688.387,661.722h-1.331V658.27q0-1.6-1.208-1.6a1.209,1.209,0,0,0-.967.439,1.554,1.554,0,0,0-.373,1.036v3.575h-1.341v-4.307c0-.53-.014-1.1-.047-1.726H684.3l.062.941h.038a1.954,1.954,0,0,1,.691-.727,2.275,2.275,0,0,1,1.208-.345,1.924,1.924,0,0,1,1.4.545,2.647,2.647,0,0,1,.691,2Z" transform="translate(-556.817 -644.543)" fill="#fff"/>
        <path id="Path_38" d="M691.919,657.4h-1.476v2.935q0,1.113.78,1.115a2.416,2.416,0,0,0,.6-.062l.034,1.017a2.977,2.977,0,0,1-1.036.15,1.6,1.6,0,0,1-1.238-.487,2.352,2.352,0,0,1-.449-1.623v-3.04h-.882V656.4h.882v-1.1l1.315-.4v1.5h1.476Z" transform="translate(-551.328 -645.247)" fill="#fff"/>
        <path id="Path_39" d="M696.156,663.086h-1.341v-3.423q0-1.621-1.208-1.621a1.279,1.279,0,0,0-1.279.939,1.7,1.7,0,0,0-.062.482v3.625h-1.34v-8.8h1.34v3.634h.024a2.027,2.027,0,0,1,1.811-.991,1.873,1.873,0,0,1,1.381.545,2.752,2.752,0,0,1,.68,2.021Z" transform="translate(-548.468 -645.905)" fill="#fff"/>
        <path id="Path_40" d="M699.755,658.425a3.351,3.351,0,0,1-.05.608h-4.02a1.768,1.768,0,0,0,.582,1.364,2.005,2.005,0,0,0,1.319.423,4.437,4.437,0,0,0,1.624-.285l.211.93a5.039,5.039,0,0,1-2.023.373,2.917,2.917,0,0,1-2.2-.825,3.042,3.042,0,0,1-.8-2.215,3.44,3.44,0,0,1,.746-2.27,2.557,2.557,0,0,1,2.106-.968,2.244,2.244,0,0,1,1.97.968,3.229,3.229,0,0,1,.535,1.9m-1.279-.345a1.793,1.793,0,0,0-.26-1.036,1.167,1.167,0,0,0-1.065-.559,1.275,1.275,0,0,0-1.068.544,2.047,2.047,0,0,0-.4,1.036Z" transform="translate(-544.756 -644.546)" fill="#fff"/>
      </g>
    </g>
  </g>
</svg>
