<svg id="google-play-download-android-app" xmlns="http://www.w3.org/2000/svg" xmlns:xlink="http://www.w3.org/1999/xlink" width="172.645" height="56.473" viewBox="0 0 172.645 56.473">
  <defs>
    <clipPath id="clip-path">
      <path id="Path_42803" data-name="Path 42803" d="M487.693,421.877l-7.785-4.494-15.016-8.67c-.834-.481-1.664-.19-1.664.816v35.323c0,.754.594,1.079,1.318.661l15.362-8.87,7.784-4.494,7.483-4.32c.878-.507.794-1.2.053-1.6s-7.535-4.351-7.535-4.351Z" transform="translate(-463.228 -408.486)"/>
    </clipPath>
    <linearGradient id="linear-gradient" x1="1.441" y1="1.519" x2="1.441" y2="1.436" gradientUnits="objectBoundingBox">
      <stop offset="0" stop-color="#257cb0"/>
      <stop offset="0.286" stop-color="#4a93b5"/>
      <stop offset="0.767" stop-color="#78bcbb"/>
      <stop offset="1" stop-color="#89cfbd"/>
    </linearGradient>
    <linearGradient id="linear-gradient-2" x1="1.103" y1="2.982" x2="1.187" y2="2.982" gradientUnits="objectBoundingBox">
      <stop offset="0" stop-color="#52c1ad"/>
      <stop offset="1" stop-color="#dee89a"/>
    </linearGradient>
    <linearGradient id="linear-gradient-3" x1="1.145" y1="1.94" x2="1.145" y2="1.857" gradientUnits="objectBoundingBox">
      <stop offset="0" stop-color="#ec413d"/>
      <stop offset="0.167" stop-color="#da4452"/>
      <stop offset="0.575" stop-color="#b0487a"/>
      <stop offset="0.862" stop-color="#954a92"/>
      <stop offset="1" stop-color="#8a4a9d"/>
    </linearGradient>
    <linearGradient id="linear-gradient-4" x1="0.704" y1="4.18" x2="0.704" y2="4.097" gradientUnits="objectBoundingBox">
      <stop offset="0" stop-color="#f58879"/>
      <stop offset="0.119" stop-color="#f69079"/>
      <stop offset="0.713" stop-color="#fcb877"/>
      <stop offset="1" stop-color="#fec874"/>
    </linearGradient>
  </defs>
  <path id="Path_42801" data-name="Path 42801" d="M175.5,49.655a7.632,7.632,0,0,1-7.63,7.632H10.492A7.633,7.633,0,0,1,2.86,49.655V8.446A7.633,7.633,0,0,1,10.492.814H167.873a7.631,7.631,0,0,1,7.63,7.632V49.655h0Z" transform="translate(-2.86 -0.814)"/>
  <g id="Group_36841" data-name="Group 36841" transform="translate(12.949 11.467)" clip-path="url(#clip-path)">
    <path id="Path_42802" data-name="Path 42802" d="M463.24,387.346V425.59l19.285-19.122Z" transform="translate(-463.24 -387.941)" fill="url(#linear-gradient)"/>
  </g>
  <g id="Group_36842" data-name="Group 36842" transform="translate(12.949 11.467)" clip-path="url(#clip-path)">
    <path id="Path_42804" data-name="Path 42804" d="M487.7,396.527l-7.785-4.494L463.24,382.4v.139l19.285,19.122Z" transform="translate(-463.24 -383.136)" fill="url(#linear-gradient-2)"/>
  </g>
  <g id="Group_36843" data-name="Group 36843" transform="translate(12.949 11.467)" clip-path="url(#clip-path)">
    <path id="Path_42806" data-name="Path 42806" d="M463.24,1086.29v.139l16.68-9.631,7.784-4.494-5.179-5.136Z" transform="translate(-463.24 -1048.641)" fill="url(#linear-gradient-3)"/>
  </g>
  <g id="Group_36844" data-name="Group 36844" transform="translate(12.949 11.467)" clip-path="url(#clip-path)">
    <path id="Path_42808" data-name="Path 42808" d="M1154.03,884.566l-5.179,5.136,5.179,5.136,8.9-5.136Z" transform="translate(-1129.565 -871.175)" fill="url(#linear-gradient-4)"/>
  </g>
  <path id="Path_42810" data-name="Path 42810" d="M1947.4,755.355a4.814,4.814,0,0,1-1.984-.4,3.74,3.74,0,0,1-1.507-1.233h-.121a14.963,14.963,0,0,1,.121,1.847v4.577h-1.683V744.03h1.37l.233,1.522h.081a3.914,3.914,0,0,1,1.512-1.319,4.594,4.594,0,0,1,1.978-.406,4.111,4.111,0,0,1,3.415,1.512,8.054,8.054,0,0,1-.02,8.5,4.118,4.118,0,0,1-3.395,1.517Zm-.244-10.1a2.986,2.986,0,0,0-2.466.944,4.858,4.858,0,0,0-.782,3v.375a5.565,5.565,0,0,0,.782,3.354,2.971,2.971,0,0,0,2.506,1.009,2.607,2.607,0,0,0,2.259-1.167,5.537,5.537,0,0,0,.816-3.217,5.331,5.331,0,0,0-.816-3.191A2.687,2.687,0,0,0,1947.157,745.258Zm8.761,9.894h-1.684v-15.79h1.684Zm9.685,0-.335-1.583h-.081a4.666,4.666,0,0,1-1.659,1.416,5.05,5.05,0,0,1-2.065.371,3.717,3.717,0,0,1-2.593-.852,3.106,3.106,0,0,1-.939-2.425q0-3.368,5.388-3.532l1.888-.061v-.69a2.818,2.818,0,0,0-.564-1.933,2.315,2.315,0,0,0-1.8-.624,7.339,7.339,0,0,0-3.146.852l-.518-1.289a7.906,7.906,0,0,1,1.8-.7,7.8,7.8,0,0,1,1.963-.254,4.238,4.238,0,0,1,2.948.883,3.687,3.687,0,0,1,.959,2.832v7.59H1965.6Zm-3.805-1.187a3.421,3.421,0,0,0,2.471-.862,3.193,3.193,0,0,0,.9-2.416v-1l-1.685.071a6.126,6.126,0,0,0-2.9.625,1.882,1.882,0,0,0-.888,1.72,1.732,1.732,0,0,0,.553,1.39A2.294,2.294,0,0,0,1961.8,753.965Zm6.031-9.935h1.806l2.436,6.343a24.218,24.218,0,0,1,.995,3.136h.081q.132-.518.553-1.772t2.755-7.707h1.807l-4.78,12.665a6.316,6.316,0,0,1-1.66,2.665,3.528,3.528,0,0,1-2.328.785,6.8,6.8,0,0,1-1.523-.172v-1.35a5.888,5.888,0,0,0,1.249.122,2.573,2.573,0,0,0,2.476-1.948l.619-1.583Zm-51.633,1.034a3.789,3.789,0,0,1-.3,6.444,1.636,1.636,0,0,0-.651,1.141,1.276,1.276,0,0,0,.605,1l.838.65c1.023.861,1.953,1.653,1.953,3.258,0,2.187-2.117,4.4-6.118,4.4-3.374,0-5-1.6-5-3.327a3.347,3.347,0,0,1,1.791-2.838,10.028,10.028,0,0,1,4.443-1.071,2.435,2.435,0,0,1-.7-1.58,2.1,2.1,0,0,1,.233-.908c-.257.024-.512.047-.745.047a3.678,3.678,0,0,1-3.861-3.651,4.184,4.184,0,0,1,1.488-3.117,6.343,6.343,0,0,1,4.166-1.28h4.791l-1.489.837H1916.2Zm-1.652,10.329a3.6,3.6,0,0,0-.534-.024,9.306,9.306,0,0,0-2.443.374,2.612,2.612,0,0,0-2,2.4c0,1.651,1.606,2.839,4.1,2.839,2.232,0,3.419-1.072,3.419-2.513C1917.08,757.275,1916.312,756.649,1914.543,755.393Zm.675-4.421a2.352,2.352,0,0,0,.58-1.7c0-1.674-1-4.28-2.93-4.28a2.173,2.173,0,0,0-1.629.768,2.688,2.688,0,0,0-.512,1.721c0,1.558.907,4.141,2.909,4.141A2.381,2.381,0,0,0,1915.218,750.972Zm-13.668,4.048a5.481,5.481,0,0,1-5.667-5.482,5.755,5.755,0,0,1,6.016-5.643,5.43,5.43,0,0,1,5.549,5.481A5.675,5.675,0,0,1,1901.55,755.02Zm2.9-1.881a4.2,4.2,0,0,0,.7-2.579c0-2.044-.975-5.946-3.856-5.946a3.233,3.233,0,0,0-2.09.791,3.514,3.514,0,0,0-1.069,2.834c0,2.3,1.138,6.082,3.949,6.082A2.967,2.967,0,0,0,1904.453,753.139Zm-15.491,1.881a5.481,5.481,0,0,1-5.667-5.482,5.755,5.755,0,0,1,6.016-5.643,5.429,5.429,0,0,1,5.55,5.481A5.675,5.675,0,0,1,1888.962,755.02Zm2.9-1.881a4.207,4.207,0,0,0,.7-2.579c0-2.044-.976-5.946-3.856-5.946a3.233,3.233,0,0,0-2.09.791,3.513,3.513,0,0,0-1.068,2.834c0,2.3,1.137,6.082,3.949,6.082A2.97,2.97,0,0,0,1891.865,753.139Zm-10.345,1.517-3.34.771a24.747,24.747,0,0,1-3.852.4c-6.445,0-8.9-4.74-8.9-8.453,0-4.529,3.479-8.731,9.434-8.731a13.453,13.453,0,0,1,3.572.49,9.111,9.111,0,0,1,3.082,1.448l-1.939,1.845-.817.186.584-.934a6.674,6.674,0,0,0-5-2.194c-3.69,0-6.469,2.8-6.469,6.889a8.258,8.258,0,0,0,8.266,8.522,6.953,6.953,0,0,0,2.966-.584v-3.758l-3.525.187,1.867-1.005h4.951l-.607.584a.545.545,0,0,0-.234.373c-.024.211-.046.888-.046,1.122v2.85h0Z" transform="translate(-1813.041 -717.884)" fill="#f9f9f9"/>
  <path id="Path_42811" data-name="Path 42811" d="M3761.181,736.019c-.771-.07-.932-.21-.932-1.121V721.682c0-.05.008-.1.012-.151.094-.817.327-.957,1.052-1.378h-3.34l-1.752.841h1.785v14.418c0,.466-.092.537-.63,1.237h4.134l.864-.512c-.4-.048-.794-.071-1.192-.117Zm9.5.215c-.254.139-.509.3-.763.417a5.4,5.4,0,0,1-2.252.441,4.956,4.956,0,0,1-3.084-.9,6,6,0,0,1-2.364-4.893,5.255,5.255,0,0,1,5.31-5.356,4.505,4.505,0,0,1,2.39.65,3.839,3.839,0,0,1,1.621,2.295l-5.448,2.2-1.786.139c.579,2.945,2.573,4.66,4.777,4.66a5.992,5.992,0,0,0,2.829-.81Zm-2.179-6.911c.44-.162.672-.3.672-.626a2.3,2.3,0,0,0-2.3-1.994c-.929,0-2.667.719-2.667,3.223,0,.394.047.811.071,1.23Zm4.417-3.226v1.53h-.186V726.1h-.507v-.159h1.2v.159Zm2.086,1.53v-1.544H3775l-.471,1.544h-.146l-.475-1.544h-.006v1.544h-.169v-1.689h.289l.43,1.365h.006l.424-1.365h.293v1.689Z" transform="translate(-3650.646 -699.92)" fill="#f9f9f9"/>
  <path id="Path_42812" data-name="Path 42812" d="M1871.444,410.126h-1.16a7.661,7.661,0,0,0-.33-1.356h-1.675a7.009,7.009,0,0,0-.341,1.356h-1.091q0-.141.847-2.321a18.22,18.22,0,0,0,.847-2.4h1.371a19.963,19.963,0,0,0,.767,2.366A20.789,20.789,0,0,1,1871.444,410.126Zm-1.675-2.049a20.4,20.4,0,0,1-.62-2.023h-.058q0,.141-.642,2.023Zm6.351,2.049h-.9a8.843,8.843,0,0,0-1-1.57,8.642,8.642,0,0,1-1.189-2.048h-.058a12.767,12.767,0,0,1,.091,1.436q0,.9.051,2.183h-.892q.054-1.124.054-2.469,0-1.323-.054-2.252h1.077a6.818,6.818,0,0,0,.9,1.534,9.024,9.024,0,0,1,1.095,1.933h.054a13.67,13.67,0,0,1-.087-1.45q0-.982-.051-2.016h.907q-.051.9-.051,2.252T1876.12,410.126Zm5.255-2.524a2.675,2.675,0,0,1-.66,1.8,2.306,2.306,0,0,1-1.849.769q-.537,0-1.479-.044.047-1.1.047-2.469,0-1.319-.047-2.252h.635q.156,0,.464-.011t.4-.011a2.445,2.445,0,0,1,1.9.653A2.256,2.256,0,0,1,1881.375,407.6Zm-.99.156a1.749,1.749,0,0,0-.406-1.173,1.54,1.54,0,0,0-1.24-.477,3.771,3.771,0,0,0-.428.033q.036.726.036,1.516,0,.867.036,1.719a2.4,2.4,0,0,0,.471.047,1.37,1.37,0,0,0,1.155-.484A1.868,1.868,0,0,0,1880.385,407.759Zm5.836,2.368h-1.073a7.12,7.12,0,0,0-.645-1.584.845.845,0,0,0-.725-.3q-.211,0-.4,0,0,.932.033,1.882H1882.4q.047-1.1.047-2.469,0-1.319-.047-2.252h.627q.109,0,.455-.011t.64-.011q1.664,0,1.664,1.139a1.277,1.277,0,0,1-.95,1.258v.054a1.133,1.133,0,0,1,.642.571A12.657,12.657,0,0,1,1886.221,410.126Zm-1.359-3.336q0-.721-.928-.722a3.187,3.187,0,0,0-.6.051q.04.562.04,1.465c.133.005.245.007.337.007Q1884.861,407.592,1884.861,406.791Zm6.557.888a2.6,2.6,0,0,1-.682,1.846,2.213,2.213,0,0,1-1.686.733,2.13,2.13,0,0,1-1.6-.673,2.368,2.368,0,0,1-.645-1.709,2.6,2.6,0,0,1,.682-1.846,2.212,2.212,0,0,1,1.686-.732,2.134,2.134,0,0,1,1.6.671A2.367,2.367,0,0,1,1891.418,407.679Zm-1,.1a1.872,1.872,0,0,0-.388-1.229,1.194,1.194,0,0,0-.957-.471,1.106,1.106,0,0,0-.9.475,1.9,1.9,0,0,0-.37,1.2,1.868,1.868,0,0,0,.39,1.227,1.194,1.194,0,0,0,.955.473,1.1,1.1,0,0,0,.9-.477A1.9,1.9,0,0,0,1890.418,407.784Zm3.051,2.343h-1.026q.047-1.124.047-2.469,0-1.324-.047-2.252h1.026q-.047.914-.047,2.252Q1893.421,409.024,1893.468,410.126Zm5.255-2.524a2.675,2.675,0,0,1-.66,1.8,2.305,2.305,0,0,1-1.849.769q-.537,0-1.479-.044.047-1.1.047-2.469,0-1.319-.047-2.252h.635q.156,0,.464-.011t.4-.011a2.445,2.445,0,0,1,1.9.653A2.256,2.256,0,0,1,1898.724,407.6Zm-.99.156a1.748,1.748,0,0,0-.406-1.173,1.54,1.54,0,0,0-1.24-.477,3.773,3.773,0,0,0-.428.033q.036.726.036,1.516,0,.867.036,1.719a2.4,2.4,0,0,0,.471.047,1.369,1.369,0,0,0,1.155-.484A1.868,1.868,0,0,0,1897.734,407.759Zm7.962,2.368h-1.161a7.642,7.642,0,0,0-.33-1.356h-1.675a7.018,7.018,0,0,0-.341,1.356H1901.1q0-.141.846-2.321a18.2,18.2,0,0,0,.847-2.4h1.371a20.057,20.057,0,0,0,.767,2.366A20.855,20.855,0,0,1,1905.7,410.126Zm-1.675-2.049a20.483,20.483,0,0,1-.62-2.023h-.058q0,.141-.641,2.023Zm5.9-1.436a1.413,1.413,0,0,1-.644,1.28,2.863,2.863,0,0,1-1.579.413c-.114,0-.194,0-.243-.007q0,.682.04,1.8h-1.019q.047-1.048.047-2.469,0-1.305-.047-2.252h.631q.134,0,.515-.011t.66-.011a2.075,2.075,0,0,1,1.164.312A1.055,1.055,0,0,1,1909.925,406.642Zm-.935.2q0-.776-1.03-.776a2.922,2.922,0,0,0-.544.054q.04.686.04,1.552c.06.005.131.007.21.007Q1908.99,407.679,1908.99,406.841Zm5.284-.2a1.414,1.414,0,0,1-.643,1.28,2.865,2.865,0,0,1-1.579.413c-.114,0-.194,0-.243-.007q0,.682.04,1.8h-1.019q.047-1.048.047-2.469,0-1.305-.047-2.252h.631q.134,0,.515-.011t.66-.011a2.076,2.076,0,0,1,1.164.312A1.055,1.055,0,0,1,1914.274,406.642Zm-.935.2q0-.776-1.03-.776a2.926,2.926,0,0,0-.544.054q.04.686.04,1.552c.06.005.131.007.21.007Q1913.339,407.679,1913.339,406.841Zm8.046.838a2.6,2.6,0,0,1-.682,1.846,2.211,2.211,0,0,1-1.686.733,2.13,2.13,0,0,1-1.6-.673,2.369,2.369,0,0,1-.646-1.709,2.6,2.6,0,0,1,.682-1.846,2.211,2.211,0,0,1,1.686-.732,2.133,2.133,0,0,1,1.6.671A2.368,2.368,0,0,1,1921.384,407.679Zm-1,.1a1.873,1.873,0,0,0-.388-1.229,1.194,1.194,0,0,0-.957-.471,1.106,1.106,0,0,0-.9.475,1.9,1.9,0,0,0-.37,1.2,1.868,1.868,0,0,0,.39,1.227,1.194,1.194,0,0,0,.955.473,1.1,1.1,0,0,0,.9-.477A1.9,1.9,0,0,0,1920.384,407.784Zm5.915,2.343h-.9a8.828,8.828,0,0,0-1-1.57,8.655,8.655,0,0,1-1.189-2.048h-.058a12.77,12.77,0,0,1,.091,1.436q0,.9.051,2.183h-.892q.054-1.124.054-2.469,0-1.323-.054-2.252h1.077a6.828,6.828,0,0,0,.9,1.534,9.012,9.012,0,0,1,1.1,1.933h.054a13.667,13.667,0,0,1-.087-1.45q0-.982-.051-2.016h.907q-.051.9-.051,2.252T1926.3,410.126Z" transform="translate(-1814.416 -393.92)" fill="#f9f9fa"/>
</svg>
